#!OML:ASF \\sashay\E\Suitcase\Project 1\Capture day 1\Session 1\Male1.ASF
:FULLY-SPECIFIED
:DEGREES
1617
root 0.0412835 17.5626 9.61999 5.16874 -1.83968 -1.92916
lowerback 9.34179 -0.377283 3.5922
upperback -1.48217 0.298492 5.69887
thorax -6.84489 0.12765 3.95527
lowerneck -19.1471 -8.39222 -4.7877
upperneck 11.5503 -10.1808 0.738745
head 6.90446 -5.04536 -0.175784
rclavicle -6.95746e-015 1.59028e-015
rhumerus -21.9535 -11.2327 -70.5585
rradius 28.4439
rwrist -18.2793
rhand -21.426 16.6897
rfingers 7.12502
rthumb 4.96303 -13.2322
lclavicle -6.95746e-015 1.59028e-015
lhumerus -36.8203 0.98645 90.2381
lradius 39.7128
lwrist -3.51054
lhand -0.608306 44.3795
lfingers 7.12502
lthumb 25.0076 72.7627
rfemur -5.6301 -3.79318 17.4968
rtibia 12.8162
rfoot -9.93033 -11.0605
rtoes 8.52389
lfemur -7.32288 -5.3741 -14.6422
ltibia 17.4703
lfoot -14.2504 5.68671
ltoes 12.1608
1618
root 0.0644888 17.5643 9.64757 5.21055 -1.80834 -1.93358
lowerback 8.84937 -0.419865 3.52181
upperback -1.58706 0.1926 5.52308
thorax -6.66821 0.0746973 3.81538
lowerneck -19.0408 -8.24628 -4.85035
upperneck 11.4567 -9.9985 0.906446
head 6.86487 -4.94646 -0.0843857
rclavicle 2.16675e-014 1.11319e-014
rhumerus -21.8114 -11.688 -70.8821
rradius 28.1889
rwrist -17.8122
rhand -21.1453 16.6725
rfingers 7.12502
rthumb 5.23408 -13.2429
lclavicle 2.16675e-014 1.11319e-014
lhumerus -36.747 1.60655 89.5956
lradius 39.0471
lwrist -3.3825
lhand -0.553992 44.1724
lfingers 7.12502
lthumb 25.0596 72.5483
rfemur -5.33481 -4.02699 17.3676
rtibia 12.2814
rfoot -9.92527 -10.8711
rtoes 8.50401
lfemur -7.41198 -5.44854 -14.747
ltibia 17.6975
lfoot -14.5527 5.68262
ltoes 12.2923
1619
root 0.0778573 17.5607 9.67603 5.02434 -1.77319 -1.86775
lowerback 8.55134 -0.407893 3.29468
upperback -1.68595 0.155743 5.32046
thorax -6.59926 0.0611524 3.72917
lowerneck -18.7839 -8.17327 -4.78446
upperneck 11.2742 -9.95233 1.05635
head 6.7673 -4.91076 -0.0262901
rclavicle 5.96354e-015 -7.95139e-015
rhumerus -22.2622 -11.359 -71.2895
rradius 28.4946
rwrist -18.1379
rhand -21.3989 16.6367
rfingers 7.12502
rthumb 4.98914 -13.2846
lclavicle 5.96354e-015 -7.95139e-015
lhumerus -36.7354 1.94512 89.0187
lradius 38.163
lwrist -3.43648
lhand -0.337055 44.7949
lfingers 7.12502
lthumb 25.2675 73.1417
rfemur -4.82116 -4.14388 17.2292
rtibia 11.9963
rfoot -9.70784 -10.6746
rtoes 7.50179
lfemur -7.11126 -5.52015 -14.9246
ltibia 17.7873
lfoot -14.6733 5.76274
ltoes 12.1661
1620
root 0.0828535 17.5606 9.69507 5.03101 -1.83926 -2.23443
lowerback 8.14177 -0.358058 3.34507
upperback -1.70205 0.201871 5.3504
thorax -6.38382 0.0826071 3.71876
lowerneck -18.9789 -8.31425 -5.26235
upperneck 11.2833 -10.07 1.45197
head 6.85131 -4.9495 0.148292
rclavicle -4.96962e-016 -2.06736e-014
rhumerus -22.3803 -11.5101 -71.5352
rradius 28.7083
rwrist -18.2346
rhand -21.2292 16.7303
rfingers 7.12502
rthumb 5.15309 -13.187
lclavicle -4.96962e-016 -2.06736e-014
lhumerus -36.4557 2.78106 88.4987
lradius 37.3528
lwrist -3.91939
lhand 0.958123 44.9751
lfingers 7.12502
lthumb 26.5078 73.1408
rfemur -4.67783 -3.76562 17.6539
rtibia 11.8658
rfoot -9.86524 -11.1751
rtoes 8.02798
lfemur -7.0684 -5.20527 -14.5122
ltibia 17.7913
lfoot -14.8023 5.50343
ltoes 12.2897
1621
root 0.0938759 17.561 9.71712 4.92933 -1.88155 -2.29972
lowerback 7.93005 -0.284272 3.23201
upperback -1.86256 0.276099 5.21208
thorax -6.43469 0.120637 3.62565
lowerneck -19.0606 -8.36282 -5.2242
upperneck 11.534 -10.1404 1.41689
head 6.9449 -4.98307 0.113405
rclavicle 1.78906e-015 -9.54166e-015
rhumerus -22.6507 -11.7932 -71.7195
rradius 28.7591
rwrist -17.7899
rhand -21.0594 16.5329
rfingers 7.12502
rthumb 5.31704 -13.3804
lclavicle 1.78906e-015 -9.54166e-015
lhumerus -36.7672 3.26992 87.9426
lradius 37.0377
lwrist -4.04114
lhand 0.848115 45.299
lfingers 7.12502
lthumb 26.4025 73.4805
rfemur -4.42192 -3.47661 17.6858
rtibia 11.7075
rfoot -9.68174 -11.3432
rtoes 7.76925
lfemur -6.86034 -5.11293 -14.4814
ltibia 17.819
lfoot -14.9486 5.38462
ltoes 12.0457
1622
root 0.114472 17.5553 9.74443 4.77703 -1.8829 -1.88917
lowerback 7.6097 -0.290852 2.73845
upperback -1.94093 0.185139 4.94813
thorax -6.32838 0.0893907 3.63208
lowerneck -19.7822 -7.95581 -4.31715
upperneck 12.1578 -9.64915 0.494499
head 7.15882 -4.7843 -0.299309
rclavicle 1.45113e-014 -3.49861e-014
rhumerus -23.1964 -11.282 -72.0918
rradius 29.2169
rwrist -18.2077
rhand -20.9592 16.5928
rfingers 7.12502
rthumb 5.41375 -13.318
lclavicle 1.45113e-014 -3.49861e-014
lhumerus -36.8256 4.06798 87.2679
lradius 36.4432
lwrist -4.11173
lhand 0.687521 44.9149
lfingers 7.12502
lthumb 26.2487 73.1194
rfemur -4.02043 -3.79947 17.0889
rtibia 11.4787
rfoot -9.92814 -11.0411
rtoes 8.23023
lfemur -6.60882 -5.18684 -15.0929
ltibia 17.8575
lfoot -15.0022 5.59802
ltoes 12.2711
1623
root 0.127113 17.5557 9.75824 4.78483 -2.07321 -2.18683
lowerback 7.31767 -0.157607 2.82018
upperback -1.91474 0.35301 4.96966
thorax -6.14045 0.169288 3.58216
lowerneck -19.0353 -8.01165 -4.88739
upperneck 11.0851 -9.71258 1.21858
head 6.75386 -4.78284 0.0644497
rclavicle 5.06901e-015 -6.52014e-014
rhumerus -23.1238 -11.9191 -72.1875
rradius 29.2448
rwrist -17.6233
rhand -20.5471 16.8274
rfingers 7.12502
rthumb 5.81166 -13.0729
lclavicle 5.06901e-015 -6.52014e-014
lhumerus -36.6686 4.40723 86.9745
lradius 36.0207
lwrist -4.26161
lhand 1.63659 45.5628
lfingers 7.12502
lthumb 27.157 73.6288
rfemur -3.89893 -3.40995 17.3843
rtibia 11.2491
rfoot -9.61398 -11.2095
rtoes 7.49818
lfemur -6.52911 -5.30449 -14.8196
ltibia 17.9166
lfoot -15.1302 5.82304
ltoes 12.2326
1624
root 0.131524 17.5529 9.78848 4.73129 -2.1142 -2.29221
lowerback 6.91917 -0.125475 2.70392
upperback -2.0561 0.362689 4.85987
thorax -6.06131 0.176408 3.52795
lowerneck -19.3931 -8.03975 -4.70146
upperneck 11.4755 -9.74182 0.944641
head 6.91629 -4.80912 -0.077173
rclavicle -2.28602e-015 -2.54444e-014
rhumerus -23.4629 -11.8731 -72.4708
rradius 29.5846
rwrist -17.639
rhand -20.2761 16.4478
rfingers 7.12502
rthumb 6.07331 -13.4451
lclavicle -2.28602e-015 -2.54444e-014
lhumerus -36.6562 4.70065 86.602
lradius 35.0245
lwrist -3.64768
lhand -0.713556 45.7252
lfingers 7.12502
lthumb 24.9067 74.1223
rfemur -3.70325 -3.17341 17.4782
rtibia 11.2408
rfoot -9.87509 -11.4261
rtoes 7.83978
lfemur -6.3696 -5.04412 -14.7265
ltibia 17.8753
lfoot -15.1824 5.56623
ltoes 12.9044
1625
root 0.15322 17.5477 9.80863 4.57664 -1.8786 -2.45057
lowerback 6.71029 -0.203009 2.84423
upperback -2.14341 0.258269 4.75215
thorax -6.02807 0.117483 3.34631
lowerneck -19.1741 -8.17002 -4.63114
upperneck 11.2724 -9.93018 0.855513
head 6.81031 -4.9073 -0.125229
rclavicle -2.68359e-015 -2.22639e-014
rhumerus -23.9845 -11.945 -72.7148
rradius 29.8808
rwrist -17.3579
rhand -19.7637 16.613
rfingers 7.12502
rthumb 6.56791 -13.2652
lclavicle -2.68359e-015 -2.22639e-014
lhumerus -36.6502 5.14918 86.061
lradius 34.1521
lwrist -3.34671
lhand -0.911977 43.931
lfingers 7.12502
lthumb 24.7166 72.3544
rfemur -3.30596 -3.61043 17.5491
rtibia 11.0648
rfoot -9.76731 -11.1368
rtoes 7.59698
lfemur -6.20047 -4.96618 -14.6323
ltibia 17.9374
lfoot -15.0904 5.21596
ltoes 13.0207
1626
root 0.165418 17.5465 9.82545 4.62568 -2.03923 -1.93128
lowerback 6.40682 -0.142887 2.20329
upperback -2.31693 0.257024 4.45802
thorax -6.036 0.135465 3.39665
lowerneck -19.3731 -8.18531 -4.53852
upperneck 11.4551 -9.94415 0.714791
head 6.89022 -4.92037 -0.197928
rclavicle 1.25234e-014 -2.38542e-014
rhumerus -24.2015 -11.8859 -73.071
rradius 29.9639
rwrist -17.2231
rhand -19.7565 16.9298
rfingers 7.12502
rthumb 6.57494 -12.9482
lclavicle 1.25234e-014 -2.38542e-014
lhumerus -36.7316 6.15085 85.2876
lradius 33.6229
lwrist -4.21609
lhand 0.870149 46.1405
lfingers 7.12502
lthumb 26.4236 74.3188
rfemur -3.34255 -3.36528 16.9435
rtibia 11.0217
rfoot -9.84648 -11.4599
rtoes 7.34986
lfemur -6.19468 -5.06217 -15.2695
ltibia 17.9345
lfoot -15.27 5.50879
ltoes 13.2995
1627
root 0.180991 17.5438 9.85051 4.67254 -2.10042 -2.09205
lowerback 5.95463 -0.0640813 2.26628
upperback -2.34492 0.34145 4.37925
thorax -5.80881 0.172904 3.26372
lowerneck -19.9913 -8.17018 -4.30548
upperneck 11.8463 -9.91577 0.456927
head 7.09212 -4.91332 -0.345929
rclavicle 2.98177e-016 -4.77083e-015
rhumerus -24.4821 -12.0487 -73.2927
rradius 30.2303
rwrist -16.9521
rhand -19.2809 17.246
rfingers 7.12502
rthumb 7.03405 -12.6172
lclavicle 2.98177e-016 -4.77083e-015
lhumerus -36.8194 6.51655 84.9316
lradius 33.1599
lwrist -4.33509
lhand -0.736963 44.2972
lfingers 7.12502
lthumb 24.8843 72.6975
rfemur -3.36071 -3.6476 17.0368
rtibia 11.1265
rfoot -9.71581 -11.0976
rtoes 6.9006
lfemur -6.09927 -4.80123 -15.1549
ltibia 17.9088
lfoot -15.3624 5.12588
ltoes 13.3368
1628
root 0.186574 17.54 9.86657 4.54033 -2.30279 -2.08939
lowerback 5.72583 0.0556013 2.11224
upperback -2.36209 0.469195 4.21155
thorax -5.69967 0.238322 3.15833
lowerneck -19.9475 -8.2625 -4.13214
upperneck 11.7528 -10.0667 0.328661
head 7.04088 -4.99054 -0.426903
rclavicle -2.48481e-015 -3.33958e-014
rhumerus -24.7161 -12.0757 -73.5679
rradius 30.4421
rwrist -16.7155
rhand -18.876 16.9461
rfingers 7.12502
rthumb 7.42483 -12.9036
lclavicle -2.48481e-015 -3.33958e-014
lhumerus -36.8297 7.13627 84.3699
lradius 32.756
lwrist -4.37286
lhand -1.34239 44.5465
lfingers 7.12502
lthumb 24.304 73.0257
rfemur -3.30019 -3.12988 17.0123
rtibia 11.3503
rfoot -10.0841 -11.4087
rtoes 7.01743
lfemur -5.80722 -4.72101 -15.2042
ltibia 17.8144
lfoot -15.3387 5.2721
ltoes 14.33
